<?xml version="1.0" encoding="UTF-8"?>
<svg id="Layer_2" data-name="Layer 2" xmlns="http://www.w3.org/2000/svg" viewBox="0 0 682.22 428.58">
  <defs>
    <style>
      .cls-1 {
        fill: #fff;
      }

      .cls-2 {
        fill: #fafafa;
      }

      .cls-3 {
        fill: #aa6550;
      }

      .cls-4 {
        fill: #f5f5f5;
      }

      .cls-5 {
        fill: #455a64;
      }

      .cls-6 {
        fill: #e0e0e0;
      }

      .cls-7 {
        fill: #e8505b;
      }

      .cls-8 {
        fill: #b78876;
      }

      .cls-9 {
        fill: #e07646;
      }

      .cls-10 {
        fill: #eb996e;
      }

      .cls-11 {
        fill: #ffbe9d;
      }

      .cls-12 {
        fill: #ebebeb;
      }

      .cls-13 {
        fill: none;
        opacity: .2;
      }

      .cls-14 {
        fill: #263238;
      }
    </style>
  </defs>
  <g id="Background_Complete" data-name="Background Complete">
    <path class="cls-12" d="m527.08,383.51c2.76-1.16,4.72-4,4.73-7.35.02-4.39-3.3-7.96-7.42-7.98-4.11-.02-7.46,3.52-7.48,7.91-.01,3.38,1.96,6.26,4.75,7.42-11.46,1.73-10.94,14.18-10.94,14.18l27.1.12s.62-12.59-10.74-14.31Z"/>
    <path class="cls-12" d="m46.66,101.63c2.07-.87,3.54-3,3.55-5.51.01-3.29-2.48-5.97-5.56-5.99-3.09-.01-5.6,2.64-5.61,5.93-.01,2.54,1.47,4.69,3.56,5.56-8.6,1.3-8.21,10.64-8.21,10.64l20.34.09s.46-9.45-8.06-10.74Z"/>
    <g>
      <path class="cls-4" d="m530,69.34c.31,13.71-10.56,25.08-24.27,25.38-13.71.31-25.08-10.56-25.38-24.27-.31-13.71,10.56-25.08,24.27-25.38,13.71-.31,25.08,10.56,25.38,24.27Z"/>
      <path class="cls-6" d="m499.93,63.27c-.92-1.2-2.67-1.23-3.83-.35-1.16.88-1.69,1.91-1.9,3.47-.28-1.55-.95-2.55-2.16-3.38-1.21-.83-2.97-.72-3.84.52-.51.73-.65,1.72-.51,2.63.14.91.42,1.86,1,2.53,2.05,2.38,3.15,2.79,5.75,4.46,2.51-1.78,3.31-2.23,5.24-4.7.54-.69.78-1.65.88-2.57.1-.92-.08-1.91-.62-2.61Z"/>
      <path class="cls-6" d="m521.85,62.78c-.92-1.2-2.67-1.23-3.83-.35-1.16.88-1.69,1.91-1.9,3.47-.28-1.55-.95-2.55-2.16-3.38-1.21-.83-2.97-.72-3.84.52-.51.73-.65,1.72-.51,2.63.14.91.42,1.86,1,2.53,2.05,2.38,3.15,2.79,5.75,4.46,2.5-1.78,3.31-2.23,5.24-4.7.54-.69.78-1.65.88-2.57.1-.92-.08-1.91-.62-2.61Z"/>
      <path class="cls-1" d="m513.52,75.55c-.29,4.07-4.05,7.58-8.13,7.6-4.08.02-7.87-3.45-8.21-7.51l16.34-.09Z"/>
    </g>
    <g>
      <circle class="cls-4" cx="619.76" cy="343.47" r="25.43" transform="translate(182.15 900.77) rotate(-80.86)"/>
      <path class="cls-6" d="m611.32,336.18c.96-.06,1.82,1.02,1.9,2.42.09,1.39-.63,2.57-1.59,2.63-.97.06-1.82-1.02-1.9-2.41-.09-1.39.63-2.57,1.59-2.63Z"/>
      <path class="cls-6" d="m613.69,329.78c-.06.37-2.14.25-4.46,1.08-2.34.78-3.91,2.15-4.18,1.9-.28-.19,1.07-2.19,3.76-3.11,2.68-.94,4.98-.2,4.88.12Z"/>
      <path class="cls-6" d="m632.13,340.15c-.27.23-1.64-1.25-3.83-1.47-2.19-.25-3.84.9-4.06.62-.11-.12.16-.61.89-1.11.71-.49,1.93-.93,3.31-.78,1.38.15,2.47.83,3.07,1.47.61.64.76,1.18.63,1.27Z"/>
      <path class="cls-6" d="m634.31,335.9c-.2.32-2.26-.77-5.01-.85-2.75-.14-4.89.78-5.06.44-.21-.26,1.96-1.86,5.11-1.72,3.16.11,5.19,1.88,4.96,2.12Z"/>
      <path class="cls-6" d="m632.51,342.97c.11-.01.14,2.11-1.59,4.89-1.64,2.71-5.47,6-10.62,6.2-5.16.12-9.18-2.92-10.99-5.53-1.91-2.67-2.01-4.79-1.9-4.78.22-.08.65,1.88,2.61,4.22,1.87,2.3,5.64,4.92,10.24,4.81,4.59-.18,8.2-3.02,9.92-5.44,1.81-2.46,2.11-4.44,2.34-4.38Z"/>
    </g>
    <g>
      <path class="cls-4" d="m50.48,194.3c.29,13.94-10.78,25.47-24.72,25.76C11.83,220.34.29,209.28,0,195.34c-.29-13.94,10.78-25.47,24.72-25.76,13.94-.29,25.47,10.78,25.76,24.72Z"/>
      <g>
        <path class="cls-6" d="m16.53,188.46c.96-.08,1.82.98,1.94,2.36.11,1.38-.57,2.56-1.53,2.64-.96.08-1.82-.98-1.94-2.36-.11-1.38.57-2.56,1.53-2.64Z"/>
        <path class="cls-6" d="m18.75,182.07c-.02.22-2.13.02-4.5.91-2.38.86-3.86,2.38-4.01,2.23-.16-.09,1.18-1.97,3.76-2.91,2.57-.96,4.81-.41,4.75-.23Z"/>
      </g>
      <g>
        <path class="cls-6" d="m32.58,188.13c-.96-.04-1.78,1.05-1.84,2.44-.06,1.38.67,2.54,1.63,2.58.96.04,1.78-1.05,1.84-2.44.06-1.38-.67-2.54-1.63-2.58Z"/>
        <path class="cls-6" d="m30.1,181.83c-.07-.17,2.15-.82,4.75.04,2.61.83,4.04,2.65,3.88,2.75-.15.16-1.69-1.3-4.1-2.06-2.4-.8-4.5-.51-4.53-.73Z"/>
      </g>
      <path class="cls-6" d="m37.7,194.56s.02.49-.18,1.35c-.19.86-.63,2.08-1.47,3.43-.83,1.35-2.11,2.79-3.85,3.98-1.73,1.19-3.96,2.08-6.42,2.22-2.45.11-4.77-.54-6.61-1.55-1.86-1-3.28-2.31-4.24-3.56-.97-1.26-1.54-2.42-1.81-3.25-.28-.83-.35-1.32-.32-1.33.15-.07.54,1.91,2.53,4.26.98,1.17,2.37,2.37,4.16,3.3,1.77.92,3.96,1.51,6.27,1.41,2.3-.14,4.41-.95,6.08-2.06,1.68-1.1,2.94-2.45,3.79-3.71,1.73-2.54,1.92-4.55,2.07-4.5Z"/>
    </g>
    <path class="cls-6" d="m242.95,228.59c-1.25-1.49-3.5-1.43-4.95-.24-1.44,1.2-2.07,2.55-2.25,4.57-.44-1.97-1.36-3.23-2.96-4.22-1.6-1-3.86-.75-4.91.89-.61.96-.74,2.25-.5,3.41.23,1.17.64,2.36,1.42,3.19,2.77,2.95,4.2,3.41,7.63,5.41,3.12-2.43,4.13-3.05,6.47-6.33.66-.92.91-2.16.98-3.35.08-1.19-.21-2.44-.94-3.32Z"/>
    <path class="cls-6" d="m607.74,35.2c-1.25-1.49-3.5-1.43-4.95-.24s-2.07,2.55-2.25,4.57c-.44-1.97-1.36-3.23-2.96-4.22-1.6-1-3.86-.75-4.91.89-.61.96-.74,2.25-.5,3.41.23,1.17.64,2.36,1.42,3.19,2.77,2.95,4.2,3.41,7.63,5.41,3.12-2.43,4.13-3.05,6.47-6.33.66-.92.91-2.16.98-3.35.08-1.19-.21-2.44-.94-3.32Z"/>
    <path class="cls-12" d="m509.14,314.37c-1.25-1.49-3.5-1.43-4.95-.24-1.44,1.2-2.07,2.55-2.25,4.57-.44-1.97-1.36-3.23-2.96-4.22-1.6-1-3.86-.75-4.91.89-.61.96-.74,2.25-.5,3.41.23,1.17.64,2.36,1.42,3.19,2.77,2.95,4.2,3.41,7.63,5.41,3.12-2.43,4.13-3.05,6.47-6.33.66-.92.91-2.16.98-3.35.08-1.19-.21-2.44-.94-3.32Z"/>
  </g>
  <g id="Character_3" data-name="Character 3">
    <g>
      <path class="cls-6" d="m579.58,136.36c-25.29,0-47.66,12.46-61.35,31.55l-26.81,3.8,15.04,21.43c-1.52,5.97-2.33,12.22-2.33,18.67,0,41.67,33.78,75.45,75.45,75.45s75.45-33.78,75.45-75.45-33.78-75.45-75.45-75.45Z"/>
      <g>
        <g>
          <path class="cls-14" d="m565.73,105c11.06-14.56,22.71-12.5,30.8-8.99,8.09,3.52,13.52,12.38,12.98,21.19-.14,2.33-.64,4.77.31,6.9,1.52,3.43,5.95,4.39,8.51,7.12,3.5,3.74,2.73,9.66,1.54,14.64-1.18,4.99-2.43,10.68.5,14.88,2.69,3.85,7.81,4.88,12.03,6.93,5.58,2.71,10.06,7.76,11.68,13.75,1.62,5.99.19,12.8-4,17.37-4.1,4.47-10.27,6.45-16.27,7.34-17.47,2.57-35.98-3.06-49.05-14.94-13.07-11.88-20.45-29.76-19.55-47.4"/>
          <path class="cls-5" d="m633.78,200.29s.38-.36,1-1.12c.62-.75,1.46-1.97,1.97-3.76.51-1.78.62-4.11.06-6.69-.52-2.58-1.85-5.38-4.11-7.82-1.13-1.21-2.46-2.34-4-3.3-1.53-.97-3.27-1.71-5.09-2.46-1.82-.75-3.75-1.51-5.57-2.64-1.83-1.13-3.47-2.66-4.82-4.47-2.73-3.63-4.16-8.37-4.27-13.25-.06-2.44.17-4.94.63-7.41.45-2.47,1.08-4.93,1.56-7.43.33-1.77.63-3.56.61-5.28-.04-1.74-.52-3.41-1.16-5.01-.64-1.61-1.4-3.17-2-4.79-.59-1.66-.85-3.35-1.04-5.01-.2-1.67-.2-3.32-.39-4.88-.16-1.58-.48-3.11-.89-4.59-.82-2.94-2.06-5.69-3.71-7.9l-.02-.03h0c-2.76-4.38-7.32-6.8-11.42-7.37-4.16-.62-7.84.63-10.38,2.17-2.59,1.56-4.16,3.41-5.08,4.72-.92,1.33-1.26,2.13-1.31,2.11,0,0,.27-.83,1.15-2.21.89-1.36,2.44-3.28,5.05-4.92,2.56-1.62,6.33-2.96,10.64-2.36,4.24.55,8.97,3,11.88,7.54l-.02-.03c1.75,2.34,3.01,5.11,3.87,8.12.42,1.51.76,3.07.93,4.69.2,1.63.2,3.25.41,4.88.19,1.63.46,3.29,1.02,4.85.59,1.57,1.34,3.13,2,4.77.66,1.63,1.17,3.41,1.22,5.26.02,1.85-.29,3.64-.62,5.44-.48,2.53-1.11,4.99-1.56,7.43-.46,2.43-.69,4.87-.63,7.26.1,4.77,1.48,9.36,4.1,12.87,1.29,1.76,2.87,3.23,4.62,4.33,1.75,1.1,3.65,1.86,5.47,2.62,1.82.76,3.6,1.53,5.16,2.55,1.57.99,2.93,2.17,4.08,3.43,2.3,2.52,3.64,5.43,4.13,8.08.53,2.65.38,5.04-.19,6.86-.56,1.83-1.46,3.05-2.13,3.78-.67.74-1.11,1.03-1.11,1.03Z"/>
        </g>
        <path class="cls-2" d="m593.34,183.2c-.09-.11,1.04-1.25,2.54-2.56,1.5-1.3,2.78-2.27,2.88-2.16.09.11-1.04,1.25-2.54,2.56-1.5,1.3-2.78,2.27-2.88,2.16Z"/>
        <g>
          <path class="cls-7" d="m589.71,174.55l-33.34,4.06s-26.82,4.88-32.22,24.97c-3.72,13.87-11.43,39.72-15.84,54.38-1.9,6.33.96,13.11,6.82,16.16h0c7.07,3.68,15.77.59,18.95-6.72l14.58-33.55s5.14,11.72,4.84,17.26-11.87,25.91-11.87,25.91h0c24.62,14.12,49.65,12.34,69.11,3.51h0l-.93-53.02s9.16,47.31,27.72,43.71c15.56-3.02,5.31-33.34,0-44.94-6.78-14.79-15.62-35.89-21.18-40.98-14.92-13.64-26.64-10.75-26.64-10.75Z"/>
          <g class="cls-13">
            <path d="m558.93,181.29c-2.02,3.15-4.79,5.72-7.6,8.19-1.89,1.66-3.86,3.33-6.21,4.23-2.35.91-5.18.94-7.23-.53-2.04-1.47-2.85-4.67-1.26-6.63,1.05-1.29,2.79-1.76,4.4-2.16,5.4-1.33,10.8-2.66,16.2-3.99"/>
          </g>
          <path class="cls-14" d="m516.42,243.08c-.09-.09,1.74-1.68,4.59-2.39,2.84-.74,5.22-.23,5.17-.11-.01.16-2.33-.1-5.04.61-2.73.68-4.63,2.03-4.72,1.89Z"/>
          <path class="cls-14" d="m520.82,238.49c-.07-.11,1.48-.9,3.55-.69,2.07.19,3.45,1.26,3.35,1.36-.08.14-1.48-.67-3.4-.84-1.92-.2-3.45.32-3.5.17Z"/>
          <g class="cls-13">
            <path d="m527.45,240.96c-2.9-1.44-6.56-1.19-9.23.64-.56.38-1.26.84-1.85.5-.56-.33-.53-1.17-.22-1.74.74-1.36,2.43-1.87,3.96-2.03,2.77-.29,5.62.17,8.16,1.31"/>
          </g>
          <g class="cls-13">
            <path d="m581.63,218.55c-1.76,3.54-6.8,5.75-9.17,9.61-2,3.26-2.74,7.1-3.94,10.72-3.31,9.99-10.43,18.66-19.58,23.86,1.82-3.46,3.31-7.08,4.43-10.85.49-3.46-.98-6.72-.98-6.72,1.14-3.52,6.15-8.37,8.45-11.27,2.75-3.48,5.52-6.98,8.91-9.84,3.39-2.86,7.47-5.07,11.88-5.51"/>
          </g>
          <path class="cls-2" d="m595.82,255.64c-.12-.07,1.09-2.42,2.72-5.24,1.63-2.82,3.05-5.05,3.17-4.98.12.07-1.09,2.42-2.72,5.24-1.63,2.82-3.05,5.05-3.17,4.98Z"/>
          <path class="cls-14" d="m622.85,241.52c.07,0,.04,1.1-.06,2.86-.09,1.76-.29,4.18-.18,6.85.19,5.37,2.27,9.34,2.07,9.4-.03.02-.17-.22-.4-.66-.23-.44-.52-1.1-.84-1.92-.63-1.66-1.24-4.07-1.35-6.79-.11-2.71.15-5.15.33-6.9.2-1.75.36-2.83.43-2.83Z"/>
          <path class="cls-2" d="m577.64,264.05c.1-.1,1.82,1.56,3.55,3.93,1.74,2.37,2.79,4.51,2.67,4.57-.13.07-1.38-1.93-3.09-4.27-1.71-2.34-3.24-4.14-3.13-4.24Z"/>
          <path class="cls-2" d="m594.62,267.92c.06-.13,1.72.57,3.7,1.55,1.98.98,3.53,1.89,3.47,2.02-.06.13-1.72-.56-3.7-1.55-1.98-.98-3.53-1.89-3.47-2.02Z"/>
          <path class="cls-2" d="m583.45,251.87c-.09.11-1.53-.97-2.98-2.64-1.45-1.67-2.31-3.25-2.2-3.32.13-.08,1.17,1.35,2.59,2.98,1.42,1.64,2.68,2.87,2.59,2.98Z"/>
          <path class="cls-2" d="m562.75,265.57c-.09-.12,1.41-1.33,3.06-3.01,1.66-1.67,2.84-3.19,2.97-3.1.11.07-.9,1.75-2.6,3.47-1.69,1.72-3.35,2.76-3.43,2.64Z"/>
          <path class="cls-2" d="m551.83,271.17c.1-.11,1.43.95,2.99,2.36,1.55,1.41,2.73,2.64,2.64,2.75-.1.11-1.43-.95-2.99-2.36-1.55-1.41-2.73-2.64-2.64-2.75Z"/>
          <path class="cls-2" d="m572.53,232.81c-.08-.12,1.6-1.29,3.74-2.61,2.14-1.32,3.94-2.29,4.01-2.16.08.12-1.6,1.29-3.74,2.61-2.14,1.32-3.94,2.29-4.01,2.16Z"/>
          <path class="cls-2" d="m590.27,226.59c.13-.06,1.09,1.66,2.15,3.85,1.06,2.19,1.81,4.02,1.68,4.08-.13.06-1.09-1.66-2.15-3.85-1.06-2.19-1.81-4.02-1.68-4.08Z"/>
          <path class="cls-2" d="m602.42,223.96c-.12-.07.73-1.73,1.9-3.69,1.17-1.97,2.22-3.5,2.35-3.42.12.07-.73,1.73-1.9,3.69-1.17,1.96-2.22,3.5-2.35,3.42Z"/>
          <path class="cls-2" d="m588.24,211.67c.07-.14,1.75.6,3.93,1.11,2.18.52,4.01.61,4.01.77,0,.13-1.88.28-4.13-.26-2.25-.52-3.88-1.5-3.81-1.61Z"/>
          <path class="cls-2" d="m596.6,197.78c-.14.01-.38-1.67-.52-3.76-.15-2.09-.15-3.79,0-3.8.14-.01.38,1.67.52,3.76.15,2.09.15,3.79,0,3.8Z"/>
          <path class="cls-2" d="m615.24,225.61c-.13-.05.47-1.96,1.35-4.27.88-2.31,1.7-4.13,1.84-4.08.13.05-.47,1.96-1.35,4.27-.88,2.31-1.7,4.13-1.84,4.08Z"/>
          <path class="cls-2" d="m617.91,235.73c.11-.07,1.17,1.45,1.93,3.59.77,2.14.91,3.99.78,4-.15.02-.52-1.74-1.27-3.83-.74-2.09-1.58-3.69-1.44-3.76Z"/>
          <path class="cls-2" d="m556.33,198.9c.08-.12,1.62.69,3.45,1.82,1.83,1.13,3.25,2.14,3.17,2.26-.08.12-1.62-.69-3.45-1.82-1.83-1.13-3.25-2.14-3.17-2.26Z"/>
          <path class="cls-2" d="m546.66,215.28c-.1-.11,1.28-1.45,2.64-3.37,1.37-1.91,2.19-3.65,2.33-3.59.13.04-.49,1.93-1.91,3.9-1.4,1.98-2.99,3.17-3.07,3.07Z"/>
          <path class="cls-2" d="m532.27,215.97c.08-.11,1.75,1.05,3.56,2.79,1.81,1.73,3.03,3.36,2.93,3.44-.11.1-1.5-1.36-3.29-3.07-1.78-1.72-3.29-3.05-3.2-3.16Z"/>
          <path class="cls-2" d="m535.72,201.95c-.1-.1,1.47-1.78,3.51-3.75,2.04-1.97,3.77-3.48,3.87-3.38.1.1-1.47,1.78-3.51,3.76-2.04,1.97-3.77,3.48-3.87,3.38Z"/>
          <path class="cls-2" d="m526.81,228.59c-.14.04-.83-1.79-1.55-4.09-.72-2.3-1.19-4.21-1.06-4.25.14-.04.83,1.79,1.55,4.09.72,2.3,1.19,4.21,1.06,4.25Z"/>
          <path class="cls-2" d="m533.7,237.16c-.14-.01-.07-2.12.17-4.69.24-2.58.55-4.66.69-4.65.14.01.07,2.11-.17,4.69-.24,2.58-.55,4.66-.69,4.65Z"/>
        </g>
        <g>
          <path class="cls-8" d="m583.52,197.77c-2.13-1.51-4.79-2.08-7.36-1.58-2.42.47-4.56,1.86-5.98,3.87l-8.7,12.36-47.17,37.62c-7.33,5.84-6.63,17.19,1.35,22.1,5.6,3.44,12.85,2.36,17.21-2.56l38.5-43.49,4.97-3.83,5.85-4.24,1.33-12.73s3.51,1.56,6.26,2.81c4.33,1.99,5.77-1.62,5.77-1.62l-12.04-8.71Z"/>
          <path class="cls-3" d="m583.59,205.95c-.06.04-.34-.29-.81-.8-.46-.5-1.14-1.18-2.08-1.51-.92-.31-1.88-.05-2.38.33-.53.38-.64.82-.73.79-.05,0-.07-.53.49-1.07.54-.52,1.65-.92,2.79-.54,1.1.39,1.79,1.2,2.19,1.77.41.59.57.99.52,1.03Z"/>
          <path class="cls-3" d="m577.4,209.34s.12-.38.59-.75c.46-.37,1.26-.75,2.2-.75.94,0,1.73.39,2.19.77.47.38.63.72.58.76-.06.05-.32-.19-.79-.45-.47-.27-1.18-.55-1.98-.55-.81,0-1.52.27-1.99.53-.47.26-.74.5-.8.45Z"/>
        </g>
        <g>
          <g>
            <path class="cls-8" d="m617.68,195.24l3.31,3.58s1.1,50.71,3.03,57.6,13.23,18.46,19.29,9.09c6.06-9.37-9.09-69.17-9.09-69.17,0,0-4.13-13.78-4.41-17.09l-12.13,15.98Z"/>
            <path class="cls-5" d="m625.27,165.87l-1.3,35.03c-.09,2.5-1.46,4.78-3.63,6.03l-10.55,6.1c-2.91,1.68-6.56-.42-6.56-3.78v-32.43c0-1.84,1-3.54,2.61-4.43l15.79-8.76c1.67-.93,3.71.33,3.64,2.24Z"/>
          </g>
          <path class="cls-2" d="m613.14,175.11c-.57,1.16-.09,2.56,1.07,3.13s2.56.09,3.13-1.07c.57-1.16.09-2.56-1.07-3.13s-2.56-.09-3.13,1.07Z"/>
          <path class="cls-8" d="m629.81,179.26s-7.81-10.82-9.55-10.73c-1.73.09-10.13,5.11-9.76,6.2s2.1,1.73,3.65,1c1.55-.73,4.29-3.38,4.93-2.83.64.55,2.46,2.46,2.46,2.46,0,0-7.71,3.94-8.3,5.47-.6,1.57-2.01,4.29-.18,5.29,1.19.65,3.1-.09,3.83-3.19,0,0-1.46,4.47.8,5.56,2.43,1.18,3.17-1.3,5.13-3.74,1.65-2.05,2.39.56,2.39.56l4.6-6.06Z"/>
          <path class="cls-3" d="m623.9,179.35c-.01.08-.56.03-1.43.14-.86.1-2.04.41-3.15,1.13-1.1.72-1.86,1.68-2.3,2.42-.45.75-.62,1.28-.7,1.25-.06-.01,0-.59.38-1.42.38-.83,1.15-1.91,2.34-2.69,1.19-.78,2.49-1.05,3.4-1.06.92-.02,1.47.17,1.46.23Z"/>
        </g>
        <g>
          <g>
            <path class="cls-8" d="m558.1,108.19v4.51s-.29,67.56-.29,67.56c-.03,7.84,6.68,14.12,15.08,14.09h0c8.48-.03,15.49-6.47,15.65-14.39.17-8.32.51-17.07.51-17.07,0,0,10.74-1.59,13.21-15.53,1.23-6.93,1.08-18.33.66-27.66-.38-8.39-7.66-14.78-16.04-14.05l-28.79,2.53Z"/>
            <g>
              <path class="cls-14" d="m599.64,128.21c.02.95-.77,1.74-1.76,1.78-.99.04-1.8-.7-1.82-1.65-.02-.95.77-1.74,1.76-1.78.99-.04,1.8.7,1.82,1.65Z"/>
              <path class="cls-14" d="m600.35,125.59c-.23.23-1.57-.8-3.5-.83-1.93-.06-3.36.91-3.56.67-.1-.11.13-.52.76-.96.61-.44,1.66-.85,2.86-.83,1.2.03,2.2.49,2.78.95.59.47.78.89.67.99Z"/>
            </g>
            <g>
              <path class="cls-14" d="m581.37,127.89c.02.95-.77,1.74-1.76,1.78-.99.04-1.8-.7-1.82-1.65-.02-.95.77-1.74,1.76-1.78.99-.04,1.8.7,1.82,1.65Z"/>
              <path class="cls-14" d="m581.38,125.62c-.23.23-1.57-.8-3.5-.83-1.93-.06-3.36.91-3.57.67-.1-.11.13-.52.76-.96.61-.44,1.66-.85,2.86-.83,1.2.03,2.2.49,2.78.95.58.47.78.89.67.99Z"/>
            </g>
            <path class="cls-14" d="m588.13,140.04c0-.11,1.2-.3,3.14-.51.49-.04.96-.13,1.05-.47.12-.35-.07-.89-.3-1.47-.44-1.2-.9-2.46-1.39-3.78-1.93-5.38-3.31-9.79-3.1-9.87.22-.08,1.96,4.22,3.88,9.6.46,1.33.91,2.59,1.33,3.8.18.56.49,1.2.22,1.94-.14.37-.51.63-.82.71-.32.09-.59.09-.84.1-1.96.07-3.17.06-3.18-.05Z"/>
            <path class="cls-3" d="m589.06,162.9s-9.41.44-18.63-5.33c0,0,4.37,9.68,18.38,8.62l.25-3.3Z"/>
            <path class="cls-3" d="m587.23,144.68c-.68-.93-1.88-1.45-3.09-1.35-.84.08-1.69.46-2.21,1.14-.52.67-.64,1.64-.19,2.3.51.74,1.59.93,2.52.68.93-.25,1.73-.84,2.49-1.43.21-.16.43-.33.56-.56.13-.23.17-.53,0-.72"/>
            <path class="cls-14" d="m582.43,141.28c.31-.01.28,2.08,2.05,3.6,1.76,1.52,4,1.33,4.01,1.62.03.13-.5.4-1.45.41-.92.02-2.27-.31-3.35-1.23-1.08-.93-1.53-2.16-1.58-3.02-.06-.88.18-1.39.32-1.38Z"/>
          </g>
          <path class="cls-14" d="m541.26,186.97c11.52.91,21.66-7.31,23.38-18.73.18-1.19.38-2.16.64-2.8,1.62-4.06,1.65-8.65.53-12.88-.52-1.96-1.26-4.1-.37-5.91.65-1.32,2-2.11,3.1-3.07,2.49-2.17,3.85-5.45,4.12-8.74.28-3.29-.45-6.6-1.6-9.7-.63-1.7-1.4-3.57-.76-5.27.45-1.2,1.53-2.04,2.48-2.9,2.02-1.82,3.71-4,4.97-6.41,1.28-2.45,2.11-5.64-1.23-7.59-.7-.41-1.48-.65-2.28-.78-5.91-.92-12.95-.04-16.91,4.61-3.23,3.79-3.68,9.14-4,14.1-.98,15.65-26.88,44.71-16.87,66.14l4.79-.07Z"/>
          <path class="cls-14" d="m582.02,118.06c-.2.52-2.12.24-4.39.47-2.27.19-4.11.82-4.4.34-.13-.23.2-.71.94-1.21.74-.49,1.92-.95,3.28-1.08,1.36-.12,2.6.11,3.42.46.82.35,1.24.77,1.15,1.02Z"/>
          <path class="cls-14" d="m599.74,120c-.35.43-1.67-.05-3.27-.1-1.6-.11-2.96.24-3.26-.22-.13-.23.09-.66.69-1.06.59-.4,1.57-.72,2.67-.67,1.1.05,2.04.47,2.59.93.56.46.73.91.58,1.13Z"/>
        </g>
      </g>
      <g>
        <g>
          <path class="cls-5" d="m653.11,129.66c0,1.08-.88,1.96-1.96,1.96s-1.96-.88-1.96-1.96.88-1.96,1.96-1.96,1.96.88,1.96,1.96Z"/>
          <circle class="cls-5" cx="658.99" cy="129.66" r="1.96"/>
          <path class="cls-5" d="m668.77,128.68c.54.94.22,2.14-.72,2.68-.94.54-2.14.22-2.68-.72-.54-.94-.22-2.14.72-2.68.94-.54,2.14-.22,2.68.72Z"/>
        </g>
        <path class="cls-5" d="m659.11,106.77s.13-.01.4,0c.29,0,.67.02,1.16.03.26.01.54.01.86.04.32.04.66.09,1.03.14.37.05.77.11,1.2.17.42.1.87.22,1.34.33,1.88.48,4.16,1.31,6.49,2.83,2.33,1.5,4.75,3.63,6.71,6.54,1.93,2.91,3.42,6.57,3.81,10.68.04,1.03.16,2.08.06,3.14-.04.53-.03,1.07-.1,1.61-.08.54-.16,1.07-.24,1.62-.44,2.14-1.08,4.34-2.18,6.39-1.08,2.05-2.47,4-4.17,5.74-1.73,1.7-3.76,3.18-6.01,4.32-2.25,1.15-4.74,1.94-7.33,2.25-.64.13-1.3.13-1.95.17-.66.04-1.31.07-1.98.04-1.32-.05-2.65-.22-3.96-.5-2.85-.61-5.53-1.76-7.88-3.32l.24.02c-2.73,1.1-5.41,2.17-8.03,3.22l-.48.19.14-.49c.81-2.94,1.6-5.81,2.36-8.58l.04.21c-2.25-2.99-3.69-6.41-4.28-9.8-.3-1.7-.42-3.39-.31-5.02.03-.82.07-1.63.23-2.41.06-.39.12-.79.18-1.17.07-.39.19-.76.28-1.14,1.55-6.04,5.27-10.5,8.95-13.05,1.84-1.3,3.66-2.23,5.33-2.81.41-.15.82-.29,1.2-.43.4-.1.78-.2,1.14-.29.36-.09.71-.18,1.04-.26.33-.06.66-.1.96-.15.61-.08,1.14-.18,1.61-.2.46-.02.85-.03,1.18-.04.3,0,.54-.01.72-.02.16,0,.24,0,.24,0s-.08.02-.24.03c-.18.01-.42.03-.72.06-.32.02-.71.05-1.17.08-.46.04-.99.15-1.59.24-2.36.43-5.9,1.37-9.52,4.02-3.61,2.55-7.24,6.97-8.73,12.91-.09.37-.2.74-.27,1.12-.06.38-.11.77-.17,1.15-.15.77-.18,1.56-.21,2.37-.1,1.6.03,3.26.33,4.92.59,3.32,2.01,6.66,4.22,9.59l.07.1-.03.12c-.76,2.77-1.54,5.64-2.34,8.58l-.34-.3c2.61-1.05,5.29-2.13,8.02-3.23l.13-.05.11.07c2.3,1.51,4.92,2.65,7.7,3.24,1.28.27,2.58.44,3.87.49.65.03,1.29,0,1.93-.03.64-.04,1.28-.04,1.91-.16,2.53-.3,4.97-1.07,7.17-2.19,2.21-1.11,4.19-2.55,5.89-4.21,1.67-1.7,3.04-3.61,4.1-5.61,1.09-2,1.72-4.15,2.16-6.25.08-.53.16-1.06.24-1.58.08-.52.07-1.05.11-1.57.1-1.04-.02-2.07-.05-3.08-.37-4.04-1.81-7.64-3.69-10.52-1.91-2.87-4.28-5-6.57-6.5-2.29-1.52-4.53-2.37-6.39-2.88-.47-.12-.91-.24-1.32-.35-.42-.07-.82-.13-1.19-.19-.37-.06-.71-.12-1.02-.17-.31-.03-.6-.04-.85-.06-.49-.04-.87-.06-1.16-.08-.26-.02-.4-.04-.4-.05Z"/>
      </g>
    </g>
  </g>
  <g id="Character_2" data-name="Character 2">
    <g>
      <path class="cls-6" d="m213.26,289.86l-35.31,5.95c-13.22-11.4-30.41-18.31-49.23-18.31-41.67,0-75.45,33.78-75.45,75.45s33.78,75.45,75.45,75.45,75.45-33.78,75.45-75.45c0-11.67-2.65-22.72-7.39-32.59l16.48-30.5Z"/>
      <g>
        <g>
          <path class="cls-14" d="m58.53,273.74c0,1.08.88,1.96,1.96,1.96s1.96-.88,1.96-1.96-.88-1.96-1.96-1.96-1.96.88-1.96,1.96Z"/>
          <path class="cls-14" d="m50.68,273.74c0,1.08.88,1.96,1.96,1.96s1.96-.88,1.96-1.96-.88-1.96-1.96-1.96-1.96.88-1.96,1.96Z"/>
          <path class="cls-14" d="m42.86,272.76c-.54.94-.22,2.14.72,2.68.94.54,2.14.22,2.68-.72.54-.94.22-2.14-.72-2.68-.94-.54-2.14-.22-2.68.72Z"/>
        </g>
        <path class="cls-14" d="m52.52,250.85s-.13.02-.4.05c-.29.02-.67.05-1.16.08-.25.02-.54.03-.85.06-.31.05-.65.11-1.02.17-.37.06-.76.13-1.19.19-.42.11-.86.23-1.32.35-1.86.51-4.1,1.36-6.39,2.88-2.29,1.5-4.65,3.63-6.57,6.5-1.88,2.88-3.32,6.48-3.69,10.52-.03,1.01-.15,2.04-.05,3.08.04.52.03,1.05.11,1.57.08.52.16,1.05.24,1.58.44,2.1,1.07,4.25,2.16,6.25,1.06,2.01,2.43,3.91,4.1,5.61,1.7,1.66,3.68,3.1,5.89,4.21,2.2,1.12,4.63,1.89,7.17,2.19.63.12,1.27.12,1.91.16.64.04,1.29.07,1.93.03,1.29-.05,2.59-.22,3.87-.49,2.78-.59,5.4-1.72,7.7-3.24l.11-.07.13.05c2.73,1.1,5.41,2.18,8.02,3.23l-.34.3c-.8-2.95-1.59-5.81-2.34-8.58l-.03-.12.07-.1c2.21-2.93,3.63-6.27,4.22-9.59.3-1.66.43-3.32.33-4.92-.03-.8-.06-1.6-.21-2.37-.06-.39-.12-.77-.17-1.15-.07-.38-.18-.75-.27-1.12-1.49-5.94-5.12-10.36-8.73-12.91-3.62-2.64-7.16-3.59-9.52-4.02-.6-.09-1.13-.21-1.59-.24-.46-.03-.85-.06-1.17-.08-.3-.02-.53-.04-.72-.06-.16-.02-.24-.03-.24-.03s.08,0,.24,0c.18,0,.42,0,.72.02.33.01.72.02,1.18.04.47.02,1,.13,1.61.2.3.05.63.08.96.15.33.08.68.17,1.04.26.36.09.74.19,1.14.29.39.14.79.28,1.2.43,1.67.58,3.48,1.51,5.33,2.81,3.68,2.55,7.4,7.01,8.95,13.05.09.38.21.75.28,1.14.06.39.12.78.18,1.17.15.79.19,1.59.23,2.41.11,1.64-.01,3.33-.31,5.02-.59,3.39-2.03,6.81-4.28,9.8l.04-.21c.76,2.77,1.55,5.63,2.36,8.58l.14.49-.48-.19c-2.62-1.05-5.29-2.12-8.03-3.22l.24-.02c-2.35,1.55-5.03,2.71-7.88,3.32-1.31.28-2.64.45-3.96.5-.66.03-1.32,0-1.98-.04-.66-.04-1.31-.04-1.95-.17-2.59-.31-5.08-1.1-7.33-2.25-2.25-1.14-4.28-2.62-6.01-4.32-1.7-1.74-3.09-3.69-4.17-5.74-1.11-2.05-1.74-4.24-2.18-6.39-.08-.54-.16-1.08-.24-1.62-.08-.54-.07-1.08-.1-1.61-.1-1.06.02-2.11.06-3.14.39-4.11,1.88-7.77,3.81-10.68,1.96-2.91,4.39-5.04,6.71-6.54,2.33-1.52,4.61-2.35,6.49-2.83.47-.12.92-.23,1.34-.33.43-.06.83-.12,1.2-.17.37-.05.71-.1,1.03-.14.31-.03.6-.03.86-.04.49-.01.88-.02,1.16-.03.26,0,.4,0,.4,0Z"/>
      </g>
      <g>
        <g>
          <path class="cls-14" d="m136.97,236.99c1.83-4.07,6.1-6.94,10.57-7.09,4.47-.15,8.93,2.42,11.02,6.37,1.25,2.35,1.74,5.14,3.54,7.1,2.25,2.44,6.39,2.82,9.05.85.73,2.85-1.04,6.11-3.82,7.06,1.47.15,2.95.3,4.42.45-2.39,5.21-8.92,7.59-14.57,6.57-5.65-1.02-10.45-4.75-14.29-9"/>
          <g>
            <path class="cls-14" d="m137.01,237.06l13.64,4.47c4.8,3.17,8.62,7.83,10.5,13.26.64,1.84,1.07,3.76,1.88,5.53.81,1.77,2.06,3.44,3.84,4.24,1.31.59,2.8.65,4.14,1.15,2.28.84,4,2.93,4.58,5.28.58,2.35.05,4.91-1.24,6.96-.65,1.03-1.51,2.02-1.56,3.24-.04.82.31,1.6.5,2.4.65,2.71-.64,5.77-3.04,7.2-2.4,1.43-5.72,1.1-7.79-.76-.87,2-2.03,4.07-4.01,5.01-1.98.94-4.89.1-5.3-2.05-.98,2.06-3.44,3.3-5.69,2.88-2.25-.43-4.07-2.48-4.23-4.75l-37.38-40.78c5.58-14.92,27.4-13.6,31.17-13.26Z"/>
            <g>
              <g>
                <g>
                  <path class="cls-11" d="m143.34,251.24c2.41.25,4.22,2.3,4.17,4.72h0l-2.64,62.79c-.1,7.41-13.59,16.18-21.55,16.02h0c-8.04-.17-5.67-8.68-5.79-15.73-.19-11.78-.19-16.21-.19-16.14,0,0-10.16-1.68-12.26-14.9-1.05-6.57-.72-17.35-.16-26.16.5-7.93,5.77-17.66,13.69-16.82l24.73,6.24Z"/>
                  <g>
                    <path class="cls-14" d="m108.36,270.39c-.03.9.7,1.66,1.64,1.71.93.05,1.72-.63,1.75-1.53.03-.89-.7-1.66-1.64-1.71-.94-.05-1.72.63-1.75,1.53Z"/>
                    <path class="cls-14" d="m107.26,267.44c.21.22,1.5-.73,3.33-.72,1.83-.02,3.17.92,3.37.69.1-.1-.12-.5-.7-.92-.58-.42-1.56-.83-2.7-.83-1.14,0-2.1.42-2.65.85-.56.43-.75.83-.65.93Z"/>
                  </g>
                  <g>
                    <path class="cls-14" d="m126.24,270.39c-.03.9.7,1.66,1.64,1.71.93.05,1.72-.63,1.75-1.53.03-.89-.7-1.66-1.64-1.71-.94-.05-1.72.63-1.75,1.53Z"/>
                    <path class="cls-14" d="m125.23,267.78c.21.22,1.5-.73,3.33-.72,1.83-.02,3.17.92,3.37.69.1-.1-.12-.5-.7-.92-.58-.42-1.56-.83-2.7-.83-1.14,0-2.1.42-2.65.85-.56.43-.75.83-.65.93Z"/>
                  </g>
                  <path class="cls-14" d="m118.6,281.3c0-.1-1.13-.3-2.97-.53-.47-.05-.91-.14-.99-.46-.11-.34.09-.84.31-1.38.44-1.13.9-2.31,1.38-3.55,1.92-5.05,3.31-9.2,3.1-9.28-.2-.08-1.93,3.96-3.84,9.01-.46,1.25-.9,2.43-1.32,3.57-.18.53-.48,1.13-.24,1.83.13.35.47.6.77.68.3.09.56.1.79.11,1.85.1,3,.11,3.01,0Z"/>
                  <path class="cls-10" d="m117.33,302.89s8.91.57,17.75-4.72c0,0-4.31,9.08-17.57,7.84l-.18-3.12Z"/>
                  <path class="cls-10" d="m119.37,285.7c.66-.87,1.81-1.34,2.95-1.22.79.09,1.6.47,2.08,1.11.48.64.58,1.56.14,2.17-.49.69-1.52.85-2.4.6-.87-.25-1.62-.82-2.34-1.39-.2-.16-.4-.32-.52-.54-.12-.22-.15-.5,0-.68"/>
                  <path class="cls-14" d="m123.98,282.57c-.3-.02-.3,1.96-2,3.37-1.7,1.41-3.81,1.19-3.83,1.46-.03.12.47.38,1.36.41.88.03,2.16-.25,3.2-1.11,1.04-.86,1.48-2.01,1.55-2.82.08-.83-.15-1.32-.28-1.31Z"/>
                </g>
                <path class="cls-14" d="m124.41,264.58c.18.5,2.01.26,4.15.52,2.15.21,3.88.84,4.17.4.13-.21-.17-.68-.87-1.16-.69-.48-1.8-.94-3.09-1.08-1.29-.14-2.47.06-3.25.38-.79.32-1.18.71-1.11.94Z"/>
                <path class="cls-14" d="m107.93,262.16c.32.41,1.58-.02,3.1-.04,1.51-.07,2.8.28,3.09-.16.13-.21-.07-.63-.63-1.02-.55-.39-1.48-.71-2.52-.68-1.04.03-1.94.41-2.47.83-.54.43-.71.85-.57,1.05Z"/>
              </g>
              <path class="cls-11" d="m146.04,272.38c1-.69,2.41-.44,3.46.17,2.43,1.4,3.65,4.62,2.74,7.27-.9,2.66-3.82,4.47-6.61,4.11"/>
              <path class="cls-14" d="m125.21,240.61c-4.83.16-8.49,1.63-12.73,3.94s-7.78,6.13-9.09,10.77c-.28.99-.43,2.11.11,2.98.71,1.15,2.4,1.34,3.63.78,1.23-.56,2.12-1.66,2.96-2.72.63,2.43,3.04,4.27,5.55,4.24,2.51-.03,4.88-1.92,5.45-4.36.02,2.54,2.57,4.64,5.11,4.54,2.54-.09,4.79-2.05,5.64-4.44.47,2.26.98,4.59,2.33,6.45,1.35,1.87,3.8,3.15,6,2.44-.31,1.97-.61,4.04.09,5.91.7,1.87,2.78,3.38,4.67,2.73,1.84-.63,2.55-2.8,2.98-4.69.83-3.64,1.54-7.35,1.42-11.08-.12-3.73-1.12-7.53-3.41-10.48-2.37-3.05-5.97-4.99-9.71-5.97-3.74-.99-7.66-1.1-11.53-1.05"/>
              <path class="cls-10" d="m146.97,279.99c.04-.09.51.11,1.15-.18.63-.25,1.2-1.18,1.14-2.26-.04-1.1-.75-1.88-1.41-2.12-.66-.27-1.15-.14-1.18-.24-.05-.07.45-.42,1.32-.22.42.1.91.35,1.3.81.38.45.63,1.08.66,1.74.1,1.33-.74,2.54-1.66,2.75-.9.24-1.39-.22-1.32-.28Z"/>
            </g>
          </g>
          <ellipse class="cls-7" cx="147.36" cy="283.82" rx="1.73" ry="1.72"/>
          <path class="cls-7" d="m137.18,236.39s.8-.28,2.15-.25c1.34.03,3.22.44,5.02,1.47,1.8,1.04,3.09,2.46,3.79,3.61.71,1.15.91,1.97.86,1.99-.09.04-.41-.72-1.17-1.78-.76-1.06-2.03-2.37-3.75-3.36-1.72-.99-3.49-1.43-4.79-1.55-1.3-.13-2.12-.03-2.13-.12Z"/>
          <path class="cls-5" d="m144.11,236.4s-.03-.14-.05-.42c0-.27.05-.69.25-1.18.38-.98,1.55-2.21,3.42-2.65,1.89-.52,4.28.45,5.95,2.28.85.91,1.57,2.01,2.16,3.21.59,1.2,1.07,2.5,1.58,3.8.51,1.3,1.03,2.56,1.7,3.67.67,1.11,1.48,2.08,2.41,2.81.92.74,1.96,1.22,2.99,1.36,1.03.17,2.01-.05,2.82-.39,1.64-.74,2.56-2,2.98-2.9.41-.92.43-1.51.49-1.5.02,0,.01.14,0,.42-.03.27-.11.67-.29,1.16-.38.96-1.29,2.32-3.01,3.15-.85.39-1.92.65-3.04.49-1.12-.14-2.25-.64-3.23-1.41-.99-.77-1.85-1.77-2.55-2.93-.7-1.16-1.23-2.44-1.75-3.75-.99-2.62-1.95-5.13-3.6-6.87-1.58-1.76-3.76-2.68-5.52-2.25-1.76.36-2.9,1.48-3.31,2.37-.44.91-.32,1.52-.39,1.51Z"/>
          <path class="cls-5" d="m119.15,256.81s-.05-.12-.09-.36c-.03-.24-.11-.6-.12-1.06-.08-.92-.05-2.28.24-3.92.29-1.64.94-3.55,2.03-5.47,1.11-1.9,2.7-3.82,4.8-5.29,2.09-1.48,4.38-2.4,6.51-2.93,2.14-.55,4.14-.69,5.8-.59,1.66.1,2.99.39,3.86.7.45.13.77.3.99.39.22.1.33.16.33.18-.03.12-1.92-.83-5.2-.91-1.63-.05-3.58.13-5.67.69-2.08.55-4.31,1.46-6.33,2.9-2.03,1.42-3.58,3.27-4.68,5.11-1.08,1.86-1.75,3.71-2.08,5.3-.68,3.21-.27,5.27-.4,5.27Z"/>
          <path class="cls-5" d="m127.49,255.92s-.06-.37-.04-1.03c.02-.66.12-1.62.38-2.78.5-2.31,1.8-5.46,4.3-8.15,2.5-2.69,5.54-4.22,7.81-4.9,1.14-.35,2.09-.52,2.74-.6.66-.07,1.03-.07,1.03-.04.01.1-1.45.22-3.66.99-2.19.75-5.12,2.29-7.54,4.9-2.42,2.61-3.74,5.64-4.32,7.88-.6,2.26-.61,3.73-.71,3.72Z"/>
        </g>
        <g>
          <path class="cls-7" d="m125.21,333.99c-2.89-8.87-9.97-17.9-17.74-14.64-8.65,3.63-11.06,8.22-15.8,15.34-4.74,7.12-7.65,15.27-10.51,23.33-1.12,3.15-2.2,6.81-.48,9.68,1.48,2.48,4.53,3.46,7.32,4.2,7.21,1.92,14.49,3.56,21.82,4.92,2.94.55,6.17,1.01,8.77-.47,3.3-1.87,4.31-6.07,5-9.8l7.24-39.25"/>
          <g>
            <path class="cls-7" d="m116.88,315.09l-11.38,4.91c-5.75,4.53-7.38,12.29-7.18,19.6l-4.73,80.14s33.2,20.52,72-.94c1.01-.56-6.5-18.89-6.5-18.89l10.57-40.02c.81-5.75,1.31-17.68-.19-23.34-3.85-14.52-14.15-18.87-24.73-21.78,0,0-10.58,8.88-20.91,7.01,0,0-6.3-.59-6.94-6.69Z"/>
            <g class="cls-13">
              <path d="m101.6,381.81c6.57,9.52,13.13,19.03,19.7,28.55,2.57,3.72,5.24,7.54,9.05,9.98,5.54,3.54,13.17,3.46,18.63-.19,5.46-3.65,8.45-10.67,7.3-17.14-.14-.77-.34-1.56-.88-2.13-.82-.88-2.21-.99-3.36-.64-1.15.34-2.16,1.05-3.22,1.61-6.19,3.28-14.04,1.52-19.84-2.4s-10.06-9.67-14.51-15.08c-1.64-2-3.44-4.05-5.87-4.94-2.43-.89-5.66-.16-6.69,2.21"/>
            </g>
          </g>
          <ellipse class="cls-1" cx="134.78" cy="335.76" rx="6.8" ry="6.78"/>
          <path class="cls-1" d="m103.08,329.98c0,3.75,3.05,6.78,6.8,6.78s6.8-3.04,6.8-6.78-3.05-6.78-6.8-6.78-6.8,3.04-6.8,6.78Z"/>
          <path class="cls-1" d="m97.59,394.93c0,3.75,3.05,6.78,6.8,6.78s6.8-3.04,6.8-6.78-3.05-6.78-6.8-6.78-6.8,3.04-6.8,6.78Z"/>
          <ellipse class="cls-1" cx="116.68" cy="414.46" rx="6.8" ry="6.78"/>
          <ellipse class="cls-1" cx="148.38" cy="416.11" rx="6.8" ry="6.78"/>
          <ellipse class="cls-1" cx="121.52" cy="374.34" rx="6.8" ry="6.78"/>
          <ellipse class="cls-1" cx="114.72" cy="352.95" rx="6.8" ry="6.78"/>
          <path class="cls-14" d="m114.72,316.74c.12-.09.84,2.08,3.5,4.31,1.31,1.11,3.12,2.15,5.27,2.86,2.16.7,4.69,1.03,7.29.74,2.61-.32,5.01-1.13,7.06-2.14,2.05-1,3.76-2.17,5.13-3.24,1.37-1.07,2.41-2.02,3.11-2.69.7-.67,1.09-1.05,1.12-1.02.02.02-.31.45-.97,1.16-.66.72-1.67,1.72-3.02,2.83-1.35,1.11-3.07,2.33-5.14,3.38-2.07,1.05-4.53,1.9-7.21,2.22-2.69.3-5.29-.06-7.5-.8-2.21-.76-4.05-1.86-5.36-3.04-1.32-1.17-2.18-2.34-2.64-3.21-.26-.42-.38-.78-.5-1.01-.1-.24-.15-.36-.13-.37Z"/>
          <g>
            <path class="cls-7" d="m148.99,316.28c7.78,3.25,15.87,6.73,21.24,13.22,5.46,6.59,7.36,15.55,6.96,24.09-.4,8.54-2.88,16.83-5.35,25.02-.97,3.2-2.26,6.79-5.35,8.09-2.66,1.12-5.7.12-8.4-.93-6.95-2.7-13.79-5.67-20.51-8.9-2.7-1.29-5.57-2.83-6.79-5.55-1.55-3.46.12-7.44,1.78-10.85,5.81-11.98,11.62-23.95,17.43-35.93"/>
            <ellipse class="cls-1" cx="165.58" cy="357.72" rx="6.8" ry="6.78"/>
            <ellipse class="cls-1" cx="147.57" cy="370.12" rx="6.8" ry="6.78"/>
            <path class="cls-1" d="m149.37,336.82c0,3.67,2.99,6.65,6.67,6.65s6.67-2.98,6.67-6.65-2.99-6.65-6.67-6.65-6.67,2.98-6.67,6.65Z"/>
            <g>
              <path class="cls-11" d="m135.55,375.81l-1.73,6.68-34.56-25.19-10.58-15.04c-1.42-2.01-3.56-3.4-5.98-3.87h0c-2.57-.5-5.23.07-7.36,1.58l-9.85,6.99s.27,5.3,2.66,4.24c2.39-1.06,7.18-3.71,7.18-3.71l1.33,12.73,5.85,4.24,5.85,4.51,39.02,38.73c8.41,8.34,22.54,6.04,27.84-4.54l5.78-16.42-25.45-10.93Z"/>
              <path class="cls-10" d="m132.95,381.54c.02-.05.67.16,1.45.89.79.72,1.61,2.01,2.02,3.58.41,1.57.41,3.04.37,4.07-.04,1.04-.13,1.68-.2,1.68-.07,0-.12-.64-.17-1.67-.06-1.03-.12-2.45-.51-3.94-.39-1.49-1.11-2.71-1.78-3.46-.67-.75-1.23-1.07-1.19-1.15Z"/>
              <path class="cls-10" d="m75.27,348.15c-.06-.04.11-.44.52-1.03.4-.57,1.09-1.38,2.19-1.77,1.13-.38,2.24.01,2.79.54.57.54.55,1.08.49,1.07-.08.03-.2-.41-.73-.79-.5-.37-1.46-.64-2.38-.33-.94.33-1.61,1.02-2.08,1.51-.46.51-.74.84-.81.8Z"/>
              <path class="cls-10" d="m81.46,351.55c-.06.05-.32-.18-.8-.45-.47-.26-1.18-.54-1.99-.53-.81,0-1.52.28-1.98.55-.47.27-.73.51-.79.45-.05-.04.12-.38.58-.76.46-.38,1.25-.76,2.19-.77.94,0,1.74.38,2.2.75.47.38.64.71.59.75Z"/>
            </g>
            <path class="cls-14" d="m135.55,375.81s-.24,0-.66-.16c-.42-.16-1.02-.5-1.56-1.18-.54-.67-1-1.66-1.14-2.88-.15-1.23.16-2.63.73-4.04.57-1.42,1.42-2.85,2.14-4.45.74-1.6,1.39-3.37,1.98-5.27,1.18-3.79,2.04-8.09,3.23-12.55,1.2-4.45,2.78-8.63,5.05-11.97,2.22-3.37,5.18-5.71,7.94-6.98,2.77-1.3,5.31-1.54,6.99-1.42,1.7.12,2.58.49,2.58.49-.01.06-.91-.23-2.59-.29-1.66-.05-4.14.23-6.83,1.55-2.68,1.29-5.55,3.59-7.7,6.92-2.21,3.29-3.75,7.42-4.94,11.84-1.19,4.43-2.06,8.74-3.28,12.55-.61,1.91-1.28,3.69-2.04,5.31-.76,1.62-1.62,3.03-2.2,4.41-.58,1.37-.9,2.71-.78,3.87.11,1.17.52,2.13,1.01,2.79.49.67,1.05,1.02,1.44,1.21.39.19.63.22.62.26Z"/>
          </g>
          <path class="cls-14" d="m97.2,354.1c-.14-.02.24-3.9.86-8.67.62-4.77,1.23-8.62,1.37-8.6.14.02-.24,3.9-.86,8.67-.62,4.77-1.23,8.62-1.37,8.6Z"/>
          <g>
            <g>
              <path class="cls-11" d="m81.65,368.95l-1.84,14.44-22.02-18.77-12.04,2.91s12.42,26.07,22.23,36.4,15.1,11.8,18.8,11.96c5.09.22,7.41-5.97,7.41-5.97l2.22-35.89-14.76-5.07Z"/>
              <path class="cls-10" d="m79.9,383c.12-.06.98,1.5,1.55,3.6.58,2.1.65,3.87.52,3.88-.15.02-.45-1.69-1.02-3.75-.56-2.05-1.19-3.67-1.05-3.74Z"/>
            </g>
            <g>
              <path class="cls-5" d="m55.67,328.02h-16.58c-2.51,0-4.75,2.91-3.85,5.28l16.67,32.47c.64,1.26,1.94,2.05,3.36,2.05l20.21-.04c2.32-.31,3.16-2.88,2.2-4.28l-16.08-31.78c-1.11-2.26-3.41-3.69-5.93-3.69Z"/>
              <path class="cls-14" d="m54.55,329.98h-16.58c-2.08,0-3.42,2.19-2.48,4.03l16.27,31.76c.64,1.26,1.94,2.05,3.36,2.05h19.98c1.22,0,2.01-1.28,1.46-2.37l-16.08-31.78c-1.11-2.26-3.41-3.69-5.93-3.69Z"/>
            </g>
            <g>
              <path class="cls-11" d="m53.15,343.27l-10.09,4.03-2.16,8.13,4.86,12.1,17.83,2.59-5.22-5.34.67-4.65s4.97-1.56,5.1-2.32c.12-.76-.62-3.31-1.38-3.44-.76-.12-5.98,1.82-5.98,1.82,0,0,6.17-4.89,6-5.67-.17-.79-.84-2.79-2.07-3.02-1.23-.22-11.19,4.47-11.19,4.47l-1.62,3.69-1.41-5.9s8.85-2.48,6.67-6.51Z"/>
              <path class="cls-10" d="m54.42,362.33c-.06.02-.25-.35-.34-1.01-.1-.65-.05-1.59.3-2.55.35-.95.93-1.7,1.43-2.13.5-.44.88-.59.91-.54.1.12-1.21,1.07-1.85,2.85-.68,1.77-.3,3.34-.45,3.37Z"/>
              <path class="cls-10" d="m49.62,360.57c-.06-.03.3-.98.4-2.64.08-.82.12-1.84.51-2.93.19-.54.48-1.1.93-1.56.45-.47,1.05-.8,1.65-1.04,2.41-.88,4.58-1.58,6.17-2.1,1.59-.51,2.58-.78,2.6-.72.02.07-.93.47-2.48,1.06-1.55.6-3.73,1.37-6.1,2.23-.57.23-1.09.51-1.48.91-.39.39-.66.88-.84,1.37-.38.99-.47,1.98-.59,2.8-.2,1.67-.7,2.64-.77,2.6Z"/>
              <path class="cls-10" d="m47.31,358.74c-.14-.02-.11-.91.06-1.99.18-1.08.44-1.93.58-1.9.14.02.11.91-.06,1.99-.18,1.07-.44,1.93-.58,1.9Z"/>
            </g>
            <path class="cls-2" d="m47.04,336.1c0,1.17.95,2.11,2.11,2.11s2.11-.95,2.11-2.11-.95-2.11-2.11-2.11-2.11.95-2.11,2.11Z"/>
          </g>
          <path class="cls-10" d="m88.36,368.97s.23.15.62.49c.44.39.98.88,1.65,1.48,1.47,1.36,3.46,3.19,5.82,5.38l.08.07v.11c-.27,3.37-.58,7.33-.91,11.56-.46,6.2-.81,11.82-1.01,15.89-.09,1.97-.16,3.6-.22,4.82-.04,1.14-.08,1.77-.12,1.77s-.06-.63-.08-1.77c-.02-1.14,0-2.79.05-4.83.1-4.08.4-9.71.86-15.91.31-4.25.65-8.22.98-11.56l.07.18c-2.31-2.24-4.26-4.12-5.69-5.51-.63-.63-1.15-1.15-1.57-1.57-.36-.37-.54-.57-.52-.59Z"/>
        </g>
      </g>
    </g>
  </g>
  <g id="Character_1" data-name="Character 1">
    <g>
      <path class="cls-6" d="m255.48,114.7l-35.54-17.63c-11.92-25.98-38.14-44.03-68.59-44.03-41.67,0-75.45,33.78-75.45,75.45s33.78,75.45,75.45,75.45,73.72-32.1,75.37-72.31l28.77-16.92Z"/>
      <g>
        <g>
          <path class="cls-14" d="m219.56,46.43c0,1.08-.88,1.96-1.96,1.96s-1.96-.88-1.96-1.96.88-1.96,1.96-1.96,1.96.88,1.96,1.96Z"/>
          <path class="cls-14" d="m227.4,46.43c0,1.08-.88,1.96-1.96,1.96s-1.96-.88-1.96-1.96.88-1.96,1.96-1.96,1.96.88,1.96,1.96Z"/>
          <path class="cls-14" d="m235.23,45.45c.54.94.22,2.14-.72,2.68-.94.54-2.14.22-2.68-.72s-.22-2.14.72-2.68c.94-.54,2.14-.22,2.68.72Z"/>
        </g>
        <path class="cls-14" d="m225.56,23.53s.13-.01.4,0c.29,0,.67.02,1.16.03.26.01.54.01.86.04.32.04.66.09,1.03.14.37.05.77.11,1.2.17.42.1.87.22,1.34.33,1.88.48,4.16,1.31,6.49,2.83,2.33,1.5,4.75,3.63,6.71,6.54,1.93,2.91,3.42,6.57,3.81,10.68.04,1.03.16,2.08.06,3.14-.04.53-.03,1.07-.1,1.61-.08.54-.16,1.07-.24,1.62-.44,2.14-1.08,4.34-2.18,6.39-1.08,2.05-2.47,4-4.17,5.74-1.73,1.7-3.76,3.18-6.01,4.32-2.25,1.15-4.74,1.94-7.33,2.25-.64.13-1.3.13-1.95.17-.66.04-1.31.07-1.98.04-1.32-.05-2.65-.22-3.96-.5-2.85-.61-5.53-1.76-7.88-3.32l.24.02c-2.73,1.1-5.41,2.17-8.03,3.22l-.48.19.14-.49c.81-2.94,1.6-5.81,2.36-8.58l.04.21c-2.25-2.99-3.69-6.41-4.28-9.8-.3-1.7-.42-3.39-.31-5.02.03-.82.07-1.63.23-2.41.06-.39.12-.79.18-1.17.07-.39.19-.76.28-1.14,1.55-6.04,5.27-10.5,8.95-13.05,1.84-1.3,3.66-2.23,5.33-2.81.41-.15.82-.29,1.2-.43.4-.1.78-.2,1.14-.29.36-.09.71-.18,1.04-.26.33-.06.66-.1.96-.15.61-.08,1.14-.18,1.61-.2.46-.02.85-.03,1.18-.04.3,0,.54-.01.72-.02.16,0,.24,0,.24,0s-.08.02-.24.03c-.18.01-.42.03-.72.06-.32.02-.71.05-1.17.08-.46.04-.99.15-1.59.24-2.36.43-5.9,1.37-9.52,4.02-3.61,2.55-7.24,6.97-8.73,12.91-.09.37-.2.74-.27,1.12-.06.38-.11.77-.17,1.15-.15.77-.18,1.56-.21,2.37-.1,1.6.03,3.26.33,4.92.59,3.32,2.01,6.66,4.22,9.59l.07.1-.03.12c-.76,2.77-1.54,5.64-2.34,8.58l-.34-.3c2.61-1.05,5.29-2.13,8.02-3.23l.13-.05.11.07c2.3,1.51,4.92,2.65,7.7,3.24,1.28.27,2.58.44,3.87.49.65.03,1.29,0,1.93-.03.64-.04,1.28-.04,1.91-.16,2.53-.3,4.97-1.07,7.17-2.19,2.21-1.11,4.19-2.55,5.89-4.21,1.67-1.7,3.04-3.61,4.1-5.61,1.09-2,1.72-4.15,2.16-6.25.08-.53.16-1.06.24-1.58.08-.52.07-1.05.11-1.57.1-1.04-.02-2.07-.05-3.08-.37-4.04-1.81-7.64-3.69-10.52-1.91-2.87-4.28-5-6.57-6.5-2.29-1.52-4.53-2.37-6.39-2.88-.47-.12-.91-.24-1.32-.35-.42-.07-.82-.13-1.19-.19-.37-.06-.71-.12-1.02-.17-.31-.03-.6-.04-.85-.06-.49-.04-.87-.06-1.16-.08-.26-.02-.4-.04-.4-.05Z"/>
      </g>
      <path class="cls-14" d="m197.04,120.45c.14,0,.15,7.09.01,15.82-.14,8.74-.36,15.82-.51,15.82-.14,0-.15-7.09-.01-15.82.14-8.74.36-15.82.51-15.81Z"/>
      <g>
        <path class="cls-14" d="m167.97,82.99s0,.18-.03.52c-.03.34-.11.84-.25,1.48-.28,1.27-.89,3.1-2.1,5.11-1.23,1.99-3.11,4.16-5.77,5.81-2.64,1.66-6.07,2.64-9.67,2.54-3.6-.11-6.97-1.28-9.51-3.09-2.56-1.79-4.31-4.07-5.43-6.13-1.1-2.08-1.6-3.93-1.81-5.22-.1-.65-.16-1.15-.17-1.49-.02-.34-.02-.52,0-.52.06,0,.1.72.37,1.98.27,1.26.82,3.07,1.93,5.08,1.13,1.99,2.88,4.19,5.38,5.91,2.48,1.74,5.75,2.85,9.25,2.96,3.5.09,6.83-.84,9.4-2.43,2.6-1.58,4.46-3.67,5.71-5.6,1.23-1.95,1.88-3.72,2.22-4.96.34-1.25.42-1.96.48-1.96Z"/>
        <path class="cls-14" d="m106.92,122.58c.14,0,.26,6.91.27,15.43,0,8.52-.11,15.43-.25,15.43-.14,0-.26-6.91-.27-15.43,0-8.52.11-15.43.25-15.43Z"/>
        <g>
          <path class="cls-14" d="m136.45,80.22h29.7s26.85,9.55,35.58,16.25c8.73,6.69,22.12,53.84,22.12,53.84l-26.82-.79-2.01,40.49c-27.47,19.56-60.44,18.13-85.9,1.01l-1.99-38.33s-14.79-.43-22.34-.66-7.9-2.3-7.9-2.3c0,0,17.17-45.11,22.41-53.84,4.56-7.61,31.11-14.4,37.15-15.67"/>
          <path class="cls-2" d="m207.9,107.27s-.34.26-1.06.62c-.72.36-1.86.78-3.39.94-1.53.17-3.44.07-5.56-.45-2.13-.49-4.44-1.46-6.9-2.63-2.47-1.15-5.13-2.54-8.21-3.36-3.07-.83-6.55-.78-10.01.12-3.47.88-6.91,2.5-10.34,4.37-3.43,1.89-6.91,4.03-10.73,5.74-3.81,1.7-7.88,2.83-11.87,2.63-3.98-.17-7.68-1.39-10.99-2.81-3.33-1.43-6.33-3.11-9.19-4.55-2.85-1.45-5.57-2.7-8.15-3.54-5.17-1.72-9.73-1.61-12.65-.84-1.47.37-2.56.84-3.28,1.19-.36.17-.62.34-.8.43-.18.1-.28.14-.28.14,0,0,.08-.07.25-.18.18-.11.43-.29.78-.47.7-.39,1.79-.89,3.28-1.3,2.94-.84,7.57-1.01,12.81.69,2.62.83,5.36,2.06,8.23,3.5,2.88,1.43,5.88,3.09,9.19,4.49,3.29,1.4,6.93,2.59,10.83,2.74,3.89.19,7.87-.91,11.64-2.59,3.78-1.69,7.25-3.82,10.7-5.71,3.45-1.88,6.93-3.51,10.47-4.39,3.52-.91,7.11-.94,10.24-.08,3.14.85,5.8,2.27,8.26,3.44,2.45,1.2,4.71,2.17,6.81,2.68,2.09.54,3.96.67,5.47.53,1.51-.13,2.64-.51,3.37-.83.73-.32,1.09-.55,1.11-.52Z"/>
          <path class="cls-2" d="m217.65,129.86s-.42-.26-1.28-.64c-.85-.38-2.15-.87-3.92-1.07-1.75-.22-3.95-.13-6.39.47-2.44.59-5.08,1.78-7.83,3.37-2.76,1.57-5.62,3.57-8.91,5.41-3.27,1.79-7.08,3.51-11.39,3.61-4.3.16-8.64-1.34-12.81-3.19-4.2-1.83-8.43-4.06-13.14-5.15-4.71-1.06-9.51-.78-14-.02-4.51.75-8.75,1.98-12.83,3.06-4.07,1.08-7.98,2.02-11.72,2.46-3.73.44-7.28.42-10.44-.2-6.34-1.24-10.77-4.52-12.97-7.31-1.15-1.38-1.73-2.67-2.14-3.51-.15-.42-.28-.75-.37-1-.08-.23-.12-.34-.11-.35.1-.06.51,1.98,2.77,4.73,2.21,2.72,6.62,5.91,12.88,7.08,3.11.58,6.62.59,10.31.13,3.7-.46,7.59-1.4,11.65-2.49,4.06-1.08,8.32-2.33,12.86-3.1,4.52-.78,9.39-1.06,14.2.01,4.8,1.11,9.05,3.36,13.23,5.19,4.15,1.85,8.41,3.32,12.59,3.18,4.18-.08,7.94-1.75,11.19-3.51,3.27-1.8,6.15-3.79,8.93-5.35,2.78-1.58,5.45-2.76,7.94-3.33,2.48-.58,4.71-.64,6.49-.39,1.78.23,3.09.76,3.94,1.17.85.42,1.23.73,1.23.73Z"/>
          <path class="cls-2" d="m196.15,166.93s-.27.19-.85.41c-.58.22-1.48.43-2.67.42-1.18-.01-2.62-.27-4.19-.87-1.57-.59-3.23-1.52-5.08-2.47-1.84-.96-3.96-1.82-6.37-2.15-2.4-.37-5.03-.31-7.73.12-5.45.81-11.02,3.32-16.98,5.57-2.99,1.12-5.99,2.04-8.96,2.6-2.96.58-5.87.87-8.64.96-5.55.15-10.53-.6-14.58-1.64-4.06-1.03-7.2-2.36-9.3-3.38-1.07-.48-1.84-.95-2.39-1.24-.24-.14-.44-.25-.61-.35-.14-.08-.2-.13-.2-.13,0,0,.08.02.22.09.17.08.38.18.63.3.56.26,1.35.7,2.42,1.15,2.12.96,5.26,2.24,9.3,3.21,4.04.98,8.98,1.69,14.48,1.51,2.74-.1,5.62-.4,8.55-.98,2.94-.57,5.9-1.48,8.88-2.59,5.93-2.23,11.55-4.75,17.09-5.55,2.75-.42,5.42-.46,7.87-.07,2.46.36,4.64,1.27,6.48,2.25,1.85.98,3.48,1.92,5.01,2.52,1.53.61,2.93.89,4.09.93,2.34.08,3.5-.71,3.51-.63Z"/>
          <path class="cls-2" d="m195.29,187.9c-.05.05-.8-1.07-2.64-2.56-1.83-1.44-4.93-3.24-9.16-3.63-2.09-.21-4.43,0-6.77.8-2.33.84-4.6,2.26-6.78,4-2.19,1.74-4.33,3.78-6.71,5.72-2.37,1.93-5.08,3.77-8.25,4.73-3.17.94-6.44.99-9.49.6-3.06-.39-5.94-1.17-8.63-1.99-5.39-1.65-10.08-3.61-14.16-4.76-4.07-1.18-7.55-1.42-9.89-1.03-2.34.36-3.53.99-3.56.91,0,0,.07-.05.22-.11.18-.07.39-.17.66-.28.29-.13.65-.26,1.1-.37.44-.13.96-.27,1.55-.35,2.36-.46,5.9-.26,10.02.88,4.13,1.11,8.82,3.04,14.2,4.66,2.68.81,5.54,1.57,8.55,1.94,3.01.38,6.21.33,9.28-.59,3.08-.93,5.73-2.71,8.08-4.62,2.36-1.92,4.52-3.95,6.74-5.7,2.21-1.75,4.54-3.19,6.94-4.04,2.41-.8,4.81-1.01,6.95-.76,4.31.45,7.43,2.33,9.25,3.84,1.82,1.56,2.51,2.72,2.51,2.72Z"/>
          <g class="cls-13">
            <path d="m106.2,183.95c6.03.47,11.4-3.58,15.87-7.65,4.48-4.07,9.15-8.6,15.14-9.46,6.27-.9,12.65,2.5,18.86,1.25,2.8-.56,5.41-2.04,8.26-2.15,4.7-.18,8.64,3.31,12.02,6.58,4.4,4.25,8.79,8.5,13.19,12.75,1.35,1.3,3.91,3.25,5.6,2.44l.33-6.57c-2.11-11.83-4.4-23.99-13.51-31.82-6.76-5.81-15.96-7.81-24.82-8.82-10.73-1.22-22.35-1.08-31.36,4.88-6.01,3.97-10.25,10.2-13.03,16.85s-4.22,13.76-5.64,20.82"/>
          </g>
        </g>
        <g>
          <path class="cls-10" d="m221.66,150.24c.26,1.56,4.59,26.54,3.81,31.48s-2.08,11.44-7.8,13.77c-5.72,2.34-14.03-.78-18.71-8.84-4.68-8.06-24.95-36.38-24.95-36.38l-15.07-1.82v-25.21l28.85,18.36,13.25,12.03-1.01-4.03,21.64.64Z"/>
          <rect class="cls-5" x="139.3" y="109.85" width="29.52" height="47.82" rx="3.38" ry="3.38"/>
          <path class="cls-9" d="m186.51,140.97c.1-.11,6.37,5.31,14,12.1,7.64,6.79,13.75,12.39,13.66,12.5-.1.11-6.36-5.31-14.01-12.11-7.64-6.79-13.75-12.39-13.66-12.49Z"/>
          <g>
            <path class="cls-10" d="m80.81,151.66s-3.6,31.05-3.6,34.59,3.18,12.03,12.03,12.74c8.84.71,20.17-19.1,20.17-19.1l18.4-27.95-8.14-15.21-15.91,15.86-22.95-.93Z"/>
            <path class="cls-10" d="m162.95,128.54l-23.82-.66-19.46,8.84,8.14,15.21,14.24-2.07s8.33-1.36,8.84-1.87c.96-.96,1.79-3.91,2.37-6.47.58-2.61.29-5.34-.84-7.76l-.54-.46s7.84-1.64,9.14-2.21c3.12-1.38,1.93-2.55,1.93-2.55Z"/>
            <path class="cls-9" d="m119.67,136.72s-.31.43-.93,1.13c-.62.71-1.54,1.7-2.69,2.92-2.3,2.44-5.56,5.74-9.2,9.34-3.6,3.57-6.86,6.8-9.31,9.23-1.13,1.13-2.08,2.08-2.81,2.81-.67.66-1.05,1.01-1.07.99-.03-.02.31-.43.93-1.13.62-.71,1.54-1.7,2.69-2.92,2.3-2.44,5.56-5.74,9.21-9.34,3.6-3.57,6.86-6.8,9.31-9.23,1.13-1.13,2.08-2.08,2.81-2.81.67-.66,1.05-1.01,1.07-.99Z"/>
            <path class="cls-9" d="m143.14,135.61c-.09-.09,1.7-1.57,4.45-2.1,2.74-.56,4.97.13,4.92.24-.02.16-2.2-.27-4.81.27-2.62.5-4.47,1.73-4.55,1.59Z"/>
            <path class="cls-9" d="m153.86,138.27c-.05.15-1.91-.59-4.29-.35-2.38.2-4.08,1.26-4.15,1.12-.1-.09,1.57-1.42,4.11-1.63,2.53-.24,4.41.77,4.33.87Z"/>
            <path class="cls-9" d="m152.36,142.65c-.05.06-.32-.11-.77-.28-.45-.17-1.1-.28-1.82-.19-.72.1-1.32.39-1.7.67-.39.28-.6.51-.66.47-.05-.03.05-.36.43-.75.37-.39,1.05-.79,1.87-.9.83-.11,1.58.09,2.05.37.47.28.65.57.61.61Z"/>
          </g>
        </g>
        <g>
          <g>
            <g>
              <path class="cls-10" d="m152.18,95.18h0c7.9-.46,14.04-7.03,13.97-14.94-.04-4.75-.1-8.82-.1-8.82,0,0,12.05-1.87,12.2-13.92.15-12.04-1.94-39.7-1.94-39.7h0c-13.94-5.99-30.04-3.97-42.06,5.29l-1.78,1.37,4.07,56.98c.58,8.09,7.55,14.21,15.64,13.75Z"/>
              <path class="cls-9" d="m166.07,71.24s-7.61.62-15.7-4.46c0,0,3.71,8.67,15.73,7.58l-.03-3.12Z"/>
            </g>
            <g>
              <path class="cls-10" d="m133.95,36.93c-.21-.09-8.28-2.45-8.01,5.79.26,8.23,8.48,6.27,8.48,6.04,0-.24-.47-11.82-.47-11.82Z"/>
              <path class="cls-9" d="m131.8,45.71s-.14.1-.38.22c-.23.12-.64.2-1.07.06-.88-.29-1.66-1.65-1.74-3.13-.05-.75.09-1.47.34-2.07.23-.61.61-1.04,1.04-1.14.43-.11.75.14.86.37.12.23.07.39.11.41.02.02.17-.14.1-.48-.04-.16-.14-.35-.34-.51-.2-.15-.5-.23-.8-.18-.63.06-1.19.67-1.46,1.32-.31.66-.47,1.47-.42,2.31.11,1.66,1,3.18,2.21,3.49.58.13,1.06-.06,1.3-.26.25-.21.29-.4.26-.41Z"/>
            </g>
            <g>
              <g>
                <g>
                  <path class="cls-14" d="m172.36,38.1c.03.91-.71,1.68-1.66,1.74-.95.05-1.74-.64-1.77-1.55-.03-.91.71-1.69,1.66-1.74.95-.05,1.74.64,1.77,1.55Z"/>
                  <path class="cls-14" d="m174.03,34.74c-.21.22-1.52-.74-3.37-.74-1.85-.02-3.21.93-3.41.7-.1-.1.12-.51.71-.94.58-.43,1.58-.85,2.73-.84,1.15,0,2.12.43,2.68.87.57.44.76.84.66.94Z"/>
                </g>
                <g>
                  <path class="cls-14" d="m153.81,38.32c.03.91-.71,1.68-1.66,1.74-.95.05-1.74-.64-1.77-1.55-.03-.91.71-1.69,1.66-1.74.95-.05,1.74.64,1.77,1.55Z"/>
                  <path class="cls-14" d="m155.84,35.08c-.21.22-1.52-.74-3.37-.74-1.85-.02-3.21.93-3.41.7-.1-.1.12-.51.71-.94.58-.43,1.57-.85,2.73-.84,1.15,0,2.12.43,2.68.87.57.44.76.84.66.94Z"/>
                </g>
                <path class="cls-14" d="m162.56,48.81c0-.11,1.14-.3,3.01-.54.47-.05.92-.14,1-.47.11-.34-.09-.85-.32-1.4-.44-1.14-.91-2.34-1.4-3.6-1.94-5.12-3.35-9.34-3.14-9.41.21-.08,1.95,4.02,3.89,9.14.47,1.26.91,2.47,1.34,3.62.18.54.49,1.15.25,1.85-.13.35-.47.61-.78.69-.3.09-.57.1-.8.11-1.88.1-3.04.11-3.05,0Z"/>
                <path class="cls-14" d="m157.11,50.09c.3-.02.3,1.99,2.02,3.42,1.72,1.43,3.86,1.2,3.87,1.49.03.13-.48.39-1.38.41-.89.03-2.18-.25-3.23-1.13-1.05-.87-1.5-2.04-1.57-2.87-.08-.84.15-1.34.28-1.33Z"/>
              </g>
              <path class="cls-7" d="m156.32,27.83c-.18.5-2.03.26-4.2.53-2.18.22-3.93.85-4.22.4-.13-.22.18-.69.88-1.18.7-.49,1.82-.95,3.13-1.09,1.3-.14,2.5.06,3.29.39.8.32,1.2.72,1.12.96Z"/>
              <path class="cls-7" d="m173.35,29.38c-.33.42-1.6-.02-3.13-.04-1.53-.07-2.83.28-3.13-.16-.13-.21.07-.63.64-1.03.56-.4,1.49-.72,2.55-.69,1.05.03,1.97.41,2.5.85.54.43.72.87.58,1.07Z"/>
            </g>
          </g>
          <path class="cls-7" d="m182.18,10.19c.13-1.49-.43-3.1-1.64-3.97-1.22-.88-3.1-.82-4.09.31.57-2.01-1.08-4.33-3.16-4.46-1.96-.12-3.64,1.36-5.54,1.88-1.85.51-3.84.07-5.62-.65-1.78-.72-3.45-1.71-5.25-2.37-3.76-1.37-8.07-1.2-11.71.47-3.64,1.67-6.58,4.82-7.99,8.57-2.63-.82-5.63.51-7.25,2.75-1.62,2.23-2.04,5.16-1.72,7.9.22,1.85.75,3.64,1.38,5.4,0,.15-.02.31-.01.46.12,6.62.87,14.4,3.7,14.44,4.92.08,3.75-9.2,3.75-9.2,6.04-2.34,3.79-11.39,5.3-12.76,1.51-1.37,4.67-4.57,17.33,1.9,4.91,2.51,11.45,2.43,15.01,1.62.1-.02.21-.04.31-.06.02,0,.05,0,.07-.02.04,0,.07-.03.1-.04,1.14-.3,2.23-.74,3.25-1.38,1.15-.73,2.19-1.71,2.67-2.97.49-1.27.3-2.85-.69-3.77.93-1.17,1.67-2.56,1.79-4.05Z"/>
        </g>
      </g>
    </g>
  </g>
  <g id="Device">
    <g>
      <g>
        <path class="cls-14" d="m429.29,409.97l-129.72-.6c-15.6-.07-28.19-12.77-28.13-28.38l1.37-325.2c.07-15.61,12.78-28.21,28.39-28.14l129.72.6c15.6.07,28.19,12.77,28.13,28.38l-1.37,325.2c-.07,15.61-12.78,28.21-28.39,28.14Z"/>
        <path class="cls-2" d="m430.74,39.48l-25.15-.12c-3.37-.02-6.12,2.83-6.13,6.36l-.02,4.56c-.01,3.53-2.76,6.37-6.13,6.36l-49.02-.23c-3.37-.02-6.09-2.89-6.08-6.41l.02-4.56c.01-3.53-2.71-6.4-6.08-6.41l-8.85-.04-22.01-.1c-10.93-.05-19.83,8.77-19.88,19.71l-1.34,317.42c-.05,10.93,8.77,19.82,19.7,19.87l129.46.6c10.93.05,19.83-8.77,19.88-19.71l1.34-317.42c.05-10.93-8.77-19.82-19.7-19.87Z"/>
      </g>
      <g>
        <path class="cls-7" d="m311.74,89.67c0,3.44-2.79,6.22-6.22,6.22s-6.22-2.79-6.22-6.22,2.79-6.22,6.22-6.22,6.22,2.79,6.22,6.22Z"/>
        <g>
          <path class="cls-7" d="m323.35,84.99h104.39c3.19,0,5.78,2.59,5.78,5.78v15.81c0,3.19-2.59,5.78-5.78,5.78h-93.5c-3.19,0-5.78-2.59-5.78-5.78v-16.99l-5.12-4.6Z"/>
          <g>
            <path class="cls-1" d="m416.78,94.8c0,.14-16.03.26-35.8.26s-35.8-.12-35.8-.26,16.02-.26,35.8-.26,35.8.12,35.8.26Z"/>
            <path class="cls-1" d="m416.78,101.25c0,.14-16.03.26-35.8.26s-35.8-.12-35.8-.26,16.02-.26,35.8-.26,35.8.12,35.8.26Z"/>
          </g>
        </g>
      </g>
      <g>
        <path class="cls-7" d="m311.74,242.73c0,3.44-2.79,6.22-6.22,6.22s-6.22-2.79-6.22-6.22,2.79-6.22,6.22-6.22,6.22,2.79,6.22,6.22Z"/>
        <g>
          <path class="cls-7" d="m323.35,238.05h104.39c3.19,0,5.78,2.59,5.78,5.78v15.81c0,3.19-2.59,5.78-5.78,5.78h-93.5c-3.19,0-5.78-2.59-5.78-5.78v-16.99l-5.12-4.6Z"/>
          <g>
            <path class="cls-1" d="m416.78,247.86c0,.14-16.03.26-35.8.26s-35.8-.12-35.8-.26,16.02-.26,35.8-.26,35.8.12,35.8.26Z"/>
            <path class="cls-1" d="m416.78,254.31c0,.14-16.03.26-35.8.26s-35.8-.12-35.8-.26,16.02-.26,35.8-.26,35.8.12,35.8.26Z"/>
          </g>
        </g>
      </g>
      <g>
        <circle class="cls-5" cx="420.99" cy="137.49" r="6.11"/>
        <g>
          <path class="cls-5" d="m406.25,128.9h-97.77c-2.99,0-5.41,2.42-5.41,5.41v14.81c0,2.99,2.42,5.41,5.41,5.41h87.57c2.99,0,5.41-2.42,5.41-5.41v-15.91l4.79-4.31Z"/>
          <g>
            <path class="cls-1" d="m318.74,138.09c0-.14,15.01-.26,33.53-.26s33.53.12,33.53.26-15.01.26-33.53.26-33.53-.12-33.53-.26Z"/>
            <path class="cls-1" d="m318.74,144.13c0-.14,15.01-.26,33.53-.26s33.53.12,33.53.26-15.01.26-33.53.26-33.53-.12-33.53-.26Z"/>
          </g>
        </g>
      </g>
      <g>
        <path class="cls-14" d="m299.3,180.57c0,3.44,2.79,6.22,6.22,6.22s6.22-2.79,6.22-6.22-2.79-6.22-6.22-6.22-6.22,2.79-6.22,6.22Z"/>
        <g>
          <path class="cls-14" d="m327.23,171.56h97.77c2.99,0,5.41,2.42,5.41,5.41v14.81c0,2.99-2.42,5.41-5.41,5.41h-87.57c-2.99,0-5.41-2.42-5.41-5.41v-15.91l-4.79-4.31Z"/>
          <g>
            <path class="cls-1" d="m414.73,180.75c0,.14-15.01.26-33.53.26s-33.53-.12-33.53-.26,15.01-.26,33.53-.26,33.53.12,33.53.26Z"/>
            <path class="cls-1" d="m414.73,186.79c0,.14-15.01.26-33.53.26s-33.53-.12-33.53-.26,15.01-.26,33.53-.26,33.53.12,33.53.26Z"/>
          </g>
        </g>
        <g>
          <rect class="cls-14" x="394.95" y="209.33" width="31.58" height="16.51" rx="3.99" ry="3.99"/>
          <path class="cls-1" d="m420.91,217.59c0,.14-4.15.26-9.27.26s-9.27-.12-9.27-.26,4.15-.26,9.27-.26,9.27.12,9.27.26Z"/>
        </g>
      </g>
      <g>
        <rect class="cls-6" x="292.01" y="319.1" width="15.46" height="15.46"/>
        <rect class="cls-6" x="310.4" y="319.1" width="15.46" height="15.46"/>
        <rect class="cls-6" x="328.8" y="319.1" width="15.46" height="15.46"/>
        <rect class="cls-6" x="347.19" y="319.1" width="15.46" height="15.46"/>
        <rect class="cls-6" x="365.58" y="319.1" width="15.46" height="15.46"/>
        <rect class="cls-6" x="292.01" y="357.25" width="16.16" height="16.16"/>
        <rect class="cls-6" x="311.24" y="357.29" width="77.97" height="16.16"/>
        <path class="cls-14" d="m436.41,314.61s-.01-.4-.02-1.17c0-.78-.02-1.92-.03-3.41-.02-3.01-.04-7.44-.07-13.22l.12.12c-26.14.03-81.02.08-144.39.14h0l.26-.26c0,6.1,0,12.12,0,17.8l-.26-.26c40.62.04,76.69.08,102.6.11,12.97.03,23.4.06,30.6.08,3.59.02,6.38.03,8.28.04.94,0,1.66.01,2.16.02.49,0,.75.02.75.02,0,0-.23.01-.71.02-.49,0-1.2,0-2.12.02-1.89,0-4.66.02-8.23.04-7.19.02-17.6.04-30.54.08-25.97.03-62.09.07-102.79.11h-.26s0-.26,0-.26c0-5.68,0-11.7,0-17.8v-.26s.26,0,.26,0h0c63.37.06,118.25.12,144.39.14h.12s0,.12,0,.12c-.03,5.8-.05,10.26-.07,13.28-.01,1.48-.02,2.61-.03,3.39,0,.76-.02,1.13-.02,1.13Z"/>
        <g>
          <rect class="cls-7" x="424.14" y="299.97" width="3.7" height="7.35" rx="1.48" ry="1.48"/>
          <path class="cls-7" d="m430.47,305.87c0,.06-.43.11-1.18.15l.15-.14c-.04.62-.2,1.45-.75,2.29-.28.41-.67.81-1.19,1.07-.51.27-1.12.35-1.72.33-1.18-.02-2.19-.73-2.73-1.5-.55-.78-.8-1.55-.91-2.17l.15.13c-.86-.04-1.36-.1-1.36-.16s.5-.11,1.36-.16h.12s.04.13.04.13c.16.54.45,1.27.97,1.95.52.67,1.36,1.24,2.39,1.26.52.02,1.04-.05,1.47-.26.43-.21.77-.53,1.03-.88.51-.71.73-1.49.83-2.05l.03-.14h.12c.75.05,1.18.1,1.18.15Z"/>
          <path class="cls-7" d="m425.99,309.32c.14,0,.26.51.26,1.13s-.12,1.13-.26,1.13-.26-.51-.26-1.13.12-1.13.26-1.13Z"/>
        </g>
        <rect class="cls-6" x="391.84" y="357.25" width="16.16" height="16.16"/>
        <rect class="cls-7" x="411.06" y="357.25" width="25.34" height="16.16"/>
        <rect class="cls-6" x="384.16" y="319.1" width="15.46" height="15.46"/>
        <rect class="cls-6" x="402.55" y="319.1" width="15.46" height="15.46"/>
        <rect class="cls-6" x="420.94" y="319.1" width="15.46" height="15.46"/>
        <rect class="cls-6" x="292.01" y="338.17" width="15.46" height="15.46"/>
        <rect class="cls-6" x="310.4" y="338.17" width="15.46" height="15.46"/>
        <rect class="cls-6" x="328.8" y="338.17" width="15.46" height="15.46"/>
        <rect class="cls-6" x="347.19" y="338.17" width="15.46" height="15.46"/>
        <rect class="cls-6" x="365.58" y="338.17" width="15.46" height="15.46"/>
        <rect class="cls-6" x="384.16" y="338.17" width="15.46" height="15.46"/>
        <rect class="cls-6" x="402.55" y="338.17" width="15.46" height="15.46"/>
        <rect class="cls-6" x="420.94" y="338.17" width="15.46" height="15.46"/>
      </g>
      <g>
        <path class="cls-7" d="m361.27,283.44c0,1.46-1.21,2.64-2.68,2.63-1.47,0-2.67-1.2-2.66-2.66,0-1.46,1.21-2.64,2.68-2.63,1.47,0,2.67,1.2,2.66,2.66Z"/>
        <path class="cls-7" d="m369.55,283.47c0,1.46-1.21,2.64-2.68,2.63-1.48,0-2.67-1.2-2.66-2.66,0-1.46,1.21-2.64,2.68-2.63,1.47,0,2.67,1.2,2.66,2.66Z"/>
        <path class="cls-7" d="m377.82,283.51c0,1.46-1.21,2.64-2.68,2.63-1.48,0-2.67-1.2-2.66-2.66,0-1.46,1.21-2.64,2.68-2.63s2.67,1.2,2.66,2.66Z"/>
      </g>
    </g>
  </g>
</svg>